<svg xmlns="http://www.w3.org/2000/svg" style="display:none">
  <defs>
    <symbol id="i-infinito" viewBox="0 0 24 24"><path d="M12 12c-2-2.67-4-4-6-4a4 4 0 1 0 0 8c2 0 4-1.33 6-4Zm0 0c2 2.67 4 4 6 4a4 4 0 0 0 0-8c-2 0-4 1.33-6 4Z"/></symbol>
    <symbol id="i-amanecer" viewBox="0 0 24 24"><path d="M12 2v8"/><path d="m4.93 10.93 1.41 1.41"/><path d="M2 18h2"/><path d="M20 18h2"/><path d="m19.07 10.93-1.41 1.41"/><path d="M22 22H2"/><path d="m8 6 4-4 4 4"/><path d="M16 18a4 4 0 0 0-8 0"/></symbol>
    <symbol id="i-estudiante" viewBox="0 0 24 24"><path d="M21.42 10.922a1 1 0 0 0-.019-1.838L12.83 5.18a2 2 0 0 0-1.66 0L2.6 9.08a1 1 0 0 0 0 1.832l8.57 3.908a2 2 0 0 0 1.66 0z"/><path d="M22 10v6"/><path d="M6 12.5V16a6 3 0 0 0 12 0v-3.5"/></symbol>
    <symbol id="i-adulto" viewBox="0 0 24 24"><path d="M19 14c1.49-1.46 3-3.21 3-5.5A5.5 5.5 0 0 0 16.5 3c-1.76 0-3 .5-4.5 2-1.5-1.5-2.74-2-4.5-2A5.5 5.5 0 0 0 2 8.5c0 2.3 1.5 4.05 3 5.5l7 7Z"/><path d="M3.22 12H9.5l.5-1 2 4.5 2-7 1.5 3.5h5.27"/></symbol>
    <symbol id="i-ticket" viewBox="0 0 24 24"><path d="M2 9a3 3 0 0 1 0 6v2a2 2 0 0 0 2 2h16a2 2 0 0 0 2-2v-2a3 3 0 0 1 0-6V7a2 2 0 0 0-2-2H4a2 2 0 0 0-2 2Z"/><path d="M13 5v2"/><path d="M13 17v2"/><path d="M13 11v2"/></symbol>
    <symbol id="i-pesa" viewBox="0 0 24 24"><path d="M14.4 14.4 9.6 9.6"/><path d="M18.657 21.485a2 2 0 1 1-2.829-2.828l-1.767 1.768a2 2 0 1 1-2.829-2.829l6.364-6.364a2 2 0 1 1 2.829 2.829l-1.768 1.767a2 2 0 1 1 2.828 2.829z"/><path d="m21.5 21.5-1.4-1.4"/><path d="M3.9 3.9 2.5 2.5"/><path d="M6.404 12.768a2 2 0 1 1-2.829-2.829l1.768-1.767a2 2 0 1 1-2.828-2.829l2.828-2.828a2 2 0 1 1 2.829 2.828l1.767-1.768a2 2 0 1 1 2.829 2.829z"/></symbol>
    <symbol id="i-rayo" viewBox="0 0 24 24"><path d="M4 14a1 1 0 0 1-.78-1.63l9.9-10.2a.5.5 0 0 1 .86.46l-1.92 6.02A1 1 0 0 0 13 10h7a1 1 0 0 1 .78 1.63l-9.9 10.2a.5.5 0 0 1-.86-.46l1.92-6.02A1 1 0 0 0 11 14z"/></symbol>
    <symbol id="i-instagram" viewBox="0 0 24 24"><rect width="20" height="20" x="2" y="2" rx="5" ry="5"/><path d="M16 11.37A4 4 0 1 1 12.63 8 4 4 0 0 1 16 11.37z"/><path d="M17.5 6.5h.01"/></symbol>
    <symbol id="i-pin" viewBox="0 0 24 24"><path d="M20 10c0 4.993-5.539 10.193-7.399 11.799a1 1 0 0 1-1.202 0C9.539 20.193 4 14.993 4 10a8 8 0 0 1 16 0"/><circle cx="12" cy="10" r="3"/></symbol>
    <symbol id="i-clock" viewBox="0 0 24 24"><circle cx="12" cy="12" r="10"/><path d="M12 6v6l4 2"/></symbol>
    <symbol id="i-arrow-up-right" viewBox="0 0 24 24"><path d="M7 7h10v10"/><path d="M7 17 17 7"/></symbol>
    <symbol id="i-arrow-down" viewBox="0 0 24 24"><path d="M12 5v14"/><path d="m19 12-7 7-7-7"/></symbol>
    <symbol id="i-id" viewBox="0 0 24 24"><path d="M16 10h2"/><path d="M16 14h2"/><path d="M6.17 15a3 3 0 0 1 5.66 0"/><circle cx="9" cy="11" r="2"/><rect x="2" y="5" width="20" height="14" rx="2"/></symbol>
    <symbol id="i-users" viewBox="0 0 24 24"><path d="M16 21v-2a4 4 0 0 0-4-4H6a4 4 0 0 0-4 4v2"/><circle cx="9" cy="7" r="4"/><path d="M22 21v-2a4 4 0 0 0-3-3.87"/><path d="M16 3.13a4 4 0 0 1 0 7.75"/></symbol>
    <symbol id="i-user" viewBox="0 0 24 24"><circle cx="12" cy="7" r="4"/><path d="M19 21v-2a4 4 0 0 0-4-4H9a4 4 0 0 0-4 4v2"/></symbol>
    <symbol id="i-user-plus" viewBox="0 0 24 24"><path d="M16 21v-2a4 4 0 0 0-4-4H6a4 4 0 0 0-4 4v2"/><circle cx="9" cy="7" r="4"/><path d="M19 8v6"/><path d="M22 11h-6"/></symbol>
    <symbol id="i-nav" viewBox="0 0 24 24"><path d="M3 11 22 2l-9 19-2-8Z"/></symbol>
    <symbol id="i-menu" viewBox="0 0 24 24"><path d="M4 8h16"/><path d="M4 16h16"/></symbol>
    <symbol id="i-x" viewBox="0 0 24 24"><path d="M18 6 6 18"/><path d="m6 6 12 12"/></symbol>
    <symbol id="i-message" viewBox="0 0 24 24"><path d="M7.9 20A9 9 0 1 0 4 16.1L2 22Z"/></symbol>
    <symbol id="i-alert" viewBox="0 0 24 24"><path d="m21.73 18-8-14a2 2 0 0 0-3.48 0l-8 14A2 2 0 0 0 4 21h16a2 2 0 0 0 1.73-3"/><path d="M12 9v4"/><path d="M12 17h.01"/></symbol>
    <symbol id="i-calendar" viewBox="0 0 24 24"><rect width="18" height="18" x="3" y="4" rx="2"/><path d="M16 2v4"/><path d="M8 2v4"/><path d="M3 10h18"/></symbol>
    <symbol id="i-check" viewBox="0 0 24 24"><path d="M20 6 9 17l-5-5"/></symbol>
    <symbol id="i-star" viewBox="0 0 40 40"><path d="M20 0 C21 14 26 19 40 20 C26 21 21 26 20 40 C19 26 14 21 0 20 C14 19 19 14 20 0Z"/></symbol>
  </defs>
</svg>
